<?xml version="1.0" encoding="utf-8"?>
<!-- Generator: Adobe Illustrator 17.0.0, SVG Export Plug-In . SVG Version: 6.00 Build 0)  -->
<!DOCTYPE svg PUBLIC "-//W3C//DTD SVG 1.1//EN" "http://www.w3.org/Graphics/SVG/1.1/DTD/svg11.dtd">
<svg version="1.1" id="Layer_1" xmlns="http://www.w3.org/2000/svg" xmlns:xlink="http://www.w3.org/1999/xlink" x="0px" y="0px"
	 width="500px" height="206px" viewBox="0 0 500 206" enable-background="new 0 0 500 206" xml:space="preserve">
<path fill-rule="evenodd" clip-rule="evenodd" fill="#231F20" d="M416.24,69.996c0,6.346,0.994,17.82,9.601,17.82
	c8.569,0,9.565-11.512,9.565-17.82c0-6.317-0.959-17.955-9.565-17.955C417.197,52.04,416.24,63.642,416.24,69.996 M149.689,69.996
	c0,6.345,0.994,17.82,9.6,17.82c8.571,0,9.567-11.51,9.567-17.82c0-6.318-0.96-17.955-9.567-17.955
	C150.646,52.04,149.689,63.643,149.689,69.996z M127.95,69.996c0-9.582,2.874-17.252,8.624-23.007
	c5.75-5.771,13.327-8.656,22.715-8.656c9.406,0,16.966,2.885,22.697,8.656c5.734,5.755,8.608,13.425,8.608,23.007
	c0,9.523-2.892,17.177-8.66,22.962c-5.768,5.802-13.31,8.702-22.645,8.702c-9.352,0-16.911-2.901-22.678-8.702
	C130.842,87.172,127.95,79.518,127.95,69.996z M307.069,79.449V63.095h23.955c0.128-12.3,3.889-21.966,11.309-28.981
	c7.551-7.157,17.963-10.737,31.255-10.737c6.823,0,14.032,0.836,20.315,3.635v17.615c-4.351-1.793-9.191-2.336-13.865-2.336
	c-13.194,0-22.057,6.716-22.057,20.469c0,12.526,7.019,19.545,19.547,19.545c5.54,0,11.072-1.14,16.375-2.672v18.152
	c-7.054,2.857-14.725,4.136-22.318,4.136c-12.348,0-22.187-3.467-29.537-10.383c-3.663-3.445-6.413-7.476-8.251-12.088H307.069z
	 M193.643,100.568V39.289h20.32l20.036,31.753c-0.368-3.708-0.32-7.663-0.32-11.392V39.289c23.607,0,47.215,0,70.822,0v13.753
	h-15.759v47.526h-21.152V53.042h-14.886v47.526h-20.017l-20.232-32.111c0.331,3.665,0.214,7.713,0.214,11.391v20.72H193.643z
	 M42.853,100.568V24.565h28.879c4.386,8.279,9.02,16.315,12.435,25.05c2.792-8.228,8.03-17.219,11.996-25.05h28.965v76.003H100.94
	V65.189c0-3.893,0.21-7.844,0.902-11.681L83.925,84.752L66.184,53.508c0.693,3.862,1.1,7.755,1.1,11.681v35.379H42.853z
	 M394.5,69.996c0-9.58,2.877-17.252,8.625-23.007c5.751-5.771,13.328-8.656,22.716-8.656c9.405,0,16.966,2.885,22.697,8.656
	c5.731,5.755,8.608,13.427,8.608,23.007c0,9.521-2.894,17.177-8.662,22.962c-5.766,5.802-13.308,8.702-22.643,8.702
	c-9.353,0-16.913-2.901-22.679-8.702C397.394,87.172,394.5,79.517,394.5,69.996z"/>
<path fill-rule="evenodd" clip-rule="evenodd" fill="#FFCA05" d="M14.985,113.684H495v39.943c0,5.492-4.494,9.986-9.986,9.986H5
	V123.67C5,118.177,9.494,113.684,14.985,113.684"/>
<path fill="#231F20" d="M465.415,126.637h6.39l7.522,23.843h-5.66l-1.413-5.052h-7.649l-1.48,5.052h-5.245L465.415,126.637z
	 M468.508,131.958l-2.572,8.941h5.059L468.508,131.958z M451.842,126.637h5.297v23.843h-5.297V126.637z M433.712,126.637h7.898
	c2.629,0,4.581,0.51,5.85,1.535c1.274,1.025,1.909,2.583,1.909,4.674c0,1.547-0.334,2.811-1.006,3.809
	c-0.673,0.996-1.642,1.661-2.907,1.999c1.041,0.458,1.881,1.758,2.515,3.906v0.017l2.377,7.904h-5.521l-1.747-6.529
	c-0.281-1.049-0.663-1.776-1.145-2.183c-0.487-0.401-1.24-0.601-2.267-0.601H438.9v9.313h-5.188V126.637z M438.9,130.83v6.111h1.861
	c1.145,0,2.003-0.246,2.577-0.745c0.572-0.498,0.859-1.247,0.859-2.244c0-1.071-0.32-1.861-0.959-2.366
	c-0.635-0.503-1.646-0.756-3.026-0.756H438.9z M419.314,126.637h6.39l7.521,23.843h-5.66l-1.412-5.052h-7.65l-1.479,5.052h-5.245
	L419.314,126.637z M422.406,131.958l-2.572,8.941h5.058L422.406,131.958z M392.852,126.637h6.614l5.755,14.296
	c0.195,0.481,0.425,1.151,0.687,2.004c0.263,0.859,0.549,1.907,0.869,3.144c-0.172-1.174-0.292-2.251-0.373-3.236
	c-0.081-0.985-0.119-1.884-0.119-2.703v-13.506h4.782v23.843h-6.586l-5.979-14.817c-0.282-0.681-0.54-1.42-0.774-2.222
	c-0.229-0.801-0.444-1.672-0.64-2.611c0.187,1.42,0.325,2.726,0.411,3.918c0.091,1.191,0.134,2.245,0.134,3.149v12.584h-4.781
	V126.637z M384.409,126.637h5.298v23.843h-5.298V126.637z M364.365,126.637h5.298v13.877c0,2.039,0.252,3.505,0.754,4.416
	c0.506,0.905,1.313,1.358,2.419,1.358c1.136,0,1.995-0.487,2.573-1.461c0.577-0.974,0.868-2.411,0.868-4.313v-13.877h5.049v13.877
	c0,3.511-0.706,6.146-2.118,7.898c-1.413,1.747-3.536,2.623-6.366,2.623c-2.806,0-4.921-0.882-6.342-2.64
	c-1.422-1.765-2.134-4.393-2.134-7.881V126.637z M352.143,130.681c-1.369,0-2.472,0.71-3.307,2.125
	c-0.835,1.415-1.25,3.304-1.25,5.681c0,2.383,0.415,4.285,1.245,5.705c0.831,1.42,1.933,2.13,3.312,2.13
	c1.374,0,2.467-0.71,3.288-2.124c0.822-1.415,1.231-3.316,1.231-5.711c0-2.365-0.41-4.255-1.236-5.676
	C354.601,131.391,353.508,130.681,352.143,130.681z M357.206,149.662l4.448,5.315h-5.847l-2.977-3.974h-0.573
	c-3.178,0-5.64-1.083-7.382-3.248c-1.742-2.165-2.616-5.234-2.616-9.204c0-3.918,0.874-6.981,2.621-9.186
	c1.752-2.211,4.171-3.316,7.263-3.316c3.088,0,5.498,1.105,7.239,3.316c1.738,2.21,2.606,5.268,2.606,9.186
	c0,2.663-0.396,4.915-1.184,6.747C360.017,147.13,358.819,148.585,357.206,149.662z M328.572,126.637h6.39l7.52,23.843h-5.66
	l-1.412-5.052h-7.65l-1.479,5.052h-5.244L328.572,126.637z M331.665,131.958l-2.572,8.941h5.059L331.665,131.958z M295.872,126.637
	h8.084l3.631,14.329c0.144,0.573,0.254,1.209,0.344,1.919c0.09,0.71,0.158,1.478,0.201,2.291c0.067-0.882,0.153-1.695,0.253-2.44
	c0.105-0.744,0.22-1.38,0.349-1.907l3.636-14.192h7.955v23.843h-4.977v-16.008c0-0.762,0.019-1.547,0.058-2.365
	c0.038-0.819,0.09-1.69,0.167-2.618c-0.129,0.717-0.267,1.403-0.406,2.056c-0.139,0.653-0.291,1.272-0.449,1.856l-4.472,17.079
	h-4.753l-4.376-16.799c-0.148-0.578-0.295-1.226-0.434-1.936c-0.138-0.71-0.272-1.46-0.391-2.256
	c0.067,1.128,0.119,2.147,0.163,3.047c0.043,0.9,0.062,1.581,0.062,2.039v15.905h-4.643V126.637z M270.245,126.637h13.801v4.462
	h-8.504v4.816h8.027v4.531h-8.027v5.435h8.824v4.6h-14.121V126.637z M249.108,126.637h6.963c1.818,0,3.341,0.138,4.562,0.412
	c1.226,0.276,2.229,0.693,3.002,1.266c1.446,1.106,2.535,2.509,3.274,4.204c0.736,1.695,1.103,3.66,1.103,5.9
	c0,2.456-0.387,4.547-1.155,6.271c-0.768,1.724-1.942,3.138-3.517,4.243c-0.783,0.539-1.785,0.934-3.006,1.18
	c-1.217,0.246-2.859,0.367-4.921,0.367h-6.304V126.637z M254.434,131.238v14.46h2.291c1.866,0,3.307-0.629,4.324-1.895
	c1.016-1.266,1.522-3.058,1.522-5.383c0-2.309-0.53-4.079-1.584-5.322c-1.06-1.243-2.572-1.86-4.539-1.86H254.434z M225.886,126.637
	h6.39l7.521,23.843h-5.659l-1.413-5.052h-7.65l-1.479,5.052h-5.245L225.886,126.637z M228.978,131.958l-2.572,8.941h5.058
	L228.978,131.958z M205.064,126.637h15.138v4.766h-4.92v19.078h-5.297v-19.078h-4.92V126.637z M185.292,126.637h6.614l5.755,14.296
	c0.195,0.481,0.425,1.151,0.688,2.004c0.262,0.859,0.547,1.907,0.868,3.144c-0.172-1.174-0.291-2.251-0.372-3.236
	c-0.081-0.985-0.119-1.884-0.119-2.703v-13.506h4.781v23.843h-6.586l-5.98-14.817c-0.282-0.681-0.54-1.42-0.773-2.222
	c-0.229-0.801-0.444-1.672-0.639-2.611c0.186,1.42,0.324,2.726,0.411,3.918c0.09,1.191,0.133,2.245,0.133,3.149v12.584h-4.781
	V126.637z M168.489,126.637h13.801v4.462h-8.505v4.816h8.027v4.531h-8.027v5.435h8.825v4.6h-14.121V126.637z M150.359,126.637h7.898
	c2.629,0,4.582,0.51,5.851,1.535c1.274,1.025,1.909,2.583,1.909,4.674c0,1.547-0.334,2.811-1.007,3.809
	c-0.673,0.996-1.642,1.661-2.907,1.999c1.041,0.458,1.881,1.758,2.516,3.906v0.017l2.376,7.904h-5.521l-1.747-6.529
	c-0.281-1.049-0.663-1.776-1.145-2.183c-0.487-0.401-1.241-0.601-2.267-0.601h-0.769v9.313h-5.186V126.637z M155.545,130.83v6.111
	h1.861c1.146,0,2.005-0.246,2.578-0.745c0.572-0.498,0.858-1.247,0.858-2.244c0-1.071-0.319-1.861-0.959-2.366
	c-0.635-0.503-1.646-0.756-3.025-0.756H155.545z M121.447,126.637h6.013l3.966,10.069l3.957-10.069h5.707l-7.216,14.914v8.929
	h-5.297v-8.86L121.447,126.637z M100.907,126.637h6.39l7.52,23.843h-5.659l-1.412-5.052h-7.65l-1.48,5.052h-5.244L100.907,126.637z
	 M104,131.958l-2.573,8.941h5.059L104,131.958z M80.086,126.637h15.138v4.766h-4.921v19.078h-5.297v-19.078h-4.92V126.637z
	 M60.314,126.637h6.614l5.755,14.296c0.196,0.481,0.425,1.151,0.688,2.004c0.263,0.859,0.549,1.907,0.869,3.144
	c-0.172-1.174-0.292-2.251-0.372-3.236c-0.081-0.985-0.12-1.884-0.12-2.703v-13.506h4.783v23.843h-6.586l-5.979-14.817
	c-0.282-0.681-0.54-1.42-0.774-2.222c-0.229-0.801-0.444-1.672-0.639-2.611c0.186,1.42,0.325,2.726,0.41,3.918
	c0.091,1.191,0.134,2.245,0.134,3.149v12.584h-4.782V126.637z M43.51,126.637h13.801v4.462h-8.504v4.816h8.026v4.531h-8.026v5.435
	h8.824v4.6H43.51V126.637z M22.459,126.637h5.536l4.434,18.557l4.376-18.557h5.426l-6.739,23.843h-6.643L22.459,126.637z"/>
</svg>
